<svg width="420" height="368" viewBox="0 0 420 368" fill="none" xmlns="http://www.w3.org/2000/svg">
<path d="M0 81.1642C0 71.2231 8.05888 63.1642 18 63.1642H402C411.941 63.1642 420 71.2231 420 81.1642V350C420 359.941 411.941 368 402 368H18C8.05889 368 0 359.941 0 350V81.1642Z" fill="#666FC1"/>
<path d="M0 18C0 8.05886 8.05888 0 18 0H187.034C191.816 0 196.403 1.9034 199.78 5.29004L284.376 90.1258C295.691 101.473 287.655 120.836 271.631 120.836H18C8.05887 120.836 0 112.777 0 102.836V18Z" fill="#666FC1"/>
<path d="M229.688 45.3134C249.465 66.0346 264.614 73.4479 297.805 70.4811" stroke="#666FC1" stroke-width="10"/>
<rect x="15.75" y="82.3881" width="388.5" height="267.761" rx="18" fill="#FFFDFD" fill-opacity="0.92"/>
</svg>
